<mxfile host="app.diagrams.net" modified="2022-06-01T07:03:21.954Z" agent="5.0 (Windows NT 10.0; Win64; x64) AppleWebKit/537.36 (KHTML, like Gecko) Chrome/101.0.4951.67 Safari/537.36" etag="j_xDV1hAIRjogx4cu0JW" version="18.1.3" type="github" pages="2">
  <diagram id="2esq2hCebW-C62GO2yyg" name="uml">
    <mxGraphModel dx="1673" dy="896" grid="1" gridSize="10" guides="1" tooltips="1" connect="1" arrows="1" fold="1" page="1" pageScale="1" pageWidth="850" pageHeight="1100" math="0" shadow="0">
      <root>
        <mxCell id="0" />
        <mxCell id="1" parent="0" />
        <mxCell id="BTs02judrrAGgDwHJmD5-1" value="Pizza" style="swimlane;fontStyle=1;align=center;verticalAlign=top;childLayout=stackLayout;horizontal=1;startSize=26;horizontalStack=0;resizeParent=1;resizeParentMax=0;resizeLast=0;collapsible=1;marginBottom=0;" parent="1" vertex="1">
          <mxGeometry x="370" y="190" width="160" height="68" as="geometry" />
        </mxCell>
        <mxCell id="BTs02judrrAGgDwHJmD5-2" value="- name: String&#xa;" style="text;strokeColor=none;fillColor=none;align=left;verticalAlign=top;spacingLeft=4;spacingRight=4;overflow=hidden;rotatable=0;points=[[0,0.5],[1,0.5]];portConstraint=eastwest;" parent="BTs02judrrAGgDwHJmD5-1" vertex="1">
          <mxGeometry y="26" width="160" height="34" as="geometry" />
        </mxCell>
        <mxCell id="BTs02judrrAGgDwHJmD5-3" value="" style="line;strokeWidth=1;fillColor=none;align=left;verticalAlign=middle;spacingTop=-1;spacingLeft=3;spacingRight=3;rotatable=0;labelPosition=right;points=[];portConstraint=eastwest;" parent="BTs02judrrAGgDwHJmD5-1" vertex="1">
          <mxGeometry y="60" width="160" height="8" as="geometry" />
        </mxCell>
        <mxCell id="BTs02judrrAGgDwHJmD5-5" value="Size" style="swimlane;fontStyle=1;align=center;verticalAlign=top;childLayout=stackLayout;horizontal=1;startSize=26;horizontalStack=0;resizeParent=1;resizeParentMax=0;resizeLast=0;collapsible=1;marginBottom=0;" parent="1" vertex="1">
          <mxGeometry x="50" y="190" width="160" height="68" as="geometry" />
        </mxCell>
        <mxCell id="BTs02judrrAGgDwHJmD5-6" value="- name: String&#xa;- diameter: int" style="text;strokeColor=none;fillColor=none;align=left;verticalAlign=top;spacingLeft=4;spacingRight=4;overflow=hidden;rotatable=0;points=[[0,0.5],[1,0.5]];portConstraint=eastwest;" parent="BTs02judrrAGgDwHJmD5-5" vertex="1">
          <mxGeometry y="26" width="160" height="34" as="geometry" />
        </mxCell>
        <mxCell id="BTs02judrrAGgDwHJmD5-7" value="" style="line;strokeWidth=1;fillColor=none;align=left;verticalAlign=middle;spacingTop=-1;spacingLeft=3;spacingRight=3;rotatable=0;labelPosition=right;points=[];portConstraint=eastwest;" parent="BTs02judrrAGgDwHJmD5-5" vertex="1">
          <mxGeometry y="60" width="160" height="8" as="geometry" />
        </mxCell>
        <mxCell id="BxOXWXavswvXtlcd3Buv-1" value="" style="endArrow=none;html=1;edgeStyle=orthogonalEdgeStyle;rounded=0;entryX=0;entryY=0.5;entryDx=0;entryDy=0;exitX=1;exitY=0.5;exitDx=0;exitDy=0;" edge="1" parent="1" source="BTs02judrrAGgDwHJmD5-6" target="BTs02judrrAGgDwHJmD5-2">
          <mxGeometry relative="1" as="geometry">
            <mxPoint x="210" y="230" as="sourcePoint" />
            <mxPoint x="370" y="230" as="targetPoint" />
          </mxGeometry>
        </mxCell>
        <mxCell id="BxOXWXavswvXtlcd3Buv-2" value="1..*" style="edgeLabel;resizable=0;html=1;align=left;verticalAlign=bottom;" connectable="0" vertex="1" parent="BxOXWXavswvXtlcd3Buv-1">
          <mxGeometry x="-1" relative="1" as="geometry" />
        </mxCell>
        <mxCell id="BxOXWXavswvXtlcd3Buv-3" value="1..*" style="edgeLabel;resizable=0;html=1;align=right;verticalAlign=bottom;" connectable="0" vertex="1" parent="BxOXWXavswvXtlcd3Buv-1">
          <mxGeometry x="1" relative="1" as="geometry" />
        </mxCell>
        <mxCell id="BxOXWXavswvXtlcd3Buv-5" value="is available in" style="edgeLabel;html=1;align=center;verticalAlign=middle;resizable=0;points=[];" vertex="1" connectable="0" parent="BxOXWXavswvXtlcd3Buv-1">
          <mxGeometry x="-0.1579" y="1" relative="1" as="geometry">
            <mxPoint as="offset" />
          </mxGeometry>
        </mxCell>
        <mxCell id="BxOXWXavswvXtlcd3Buv-4" value="" style="endArrow=none;dashed=1;html=1;rounded=0;" edge="1" parent="1">
          <mxGeometry width="50" height="50" relative="1" as="geometry">
            <mxPoint x="280" y="330" as="sourcePoint" />
            <mxPoint x="280" y="240" as="targetPoint" />
          </mxGeometry>
        </mxCell>
        <mxCell id="BxOXWXavswvXtlcd3Buv-6" value="PizzaSize" style="swimlane;fontStyle=1;align=center;verticalAlign=top;childLayout=stackLayout;horizontal=1;startSize=26;horizontalStack=0;resizeParent=1;resizeParentMax=0;resizeLast=0;collapsible=1;marginBottom=0;" vertex="1" parent="1">
          <mxGeometry x="200" y="330" width="160" height="60" as="geometry" />
        </mxCell>
        <mxCell id="BxOXWXavswvXtlcd3Buv-7" value="- cost: float" style="text;strokeColor=none;fillColor=none;align=left;verticalAlign=top;spacingLeft=4;spacingRight=4;overflow=hidden;rotatable=0;points=[[0,0.5],[1,0.5]];portConstraint=eastwest;" vertex="1" parent="BxOXWXavswvXtlcd3Buv-6">
          <mxGeometry y="26" width="160" height="26" as="geometry" />
        </mxCell>
        <mxCell id="BxOXWXavswvXtlcd3Buv-8" value="" style="line;strokeWidth=1;fillColor=none;align=left;verticalAlign=middle;spacingTop=-1;spacingLeft=3;spacingRight=3;rotatable=0;labelPosition=right;points=[];portConstraint=eastwest;" vertex="1" parent="BxOXWXavswvXtlcd3Buv-6">
          <mxGeometry y="52" width="160" height="8" as="geometry" />
        </mxCell>
        <mxCell id="BxOXWXavswvXtlcd3Buv-10" value="Ingredient" style="swimlane;fontStyle=1;align=center;verticalAlign=top;childLayout=stackLayout;horizontal=1;startSize=26;horizontalStack=0;resizeParent=1;resizeParentMax=0;resizeLast=0;collapsible=1;marginBottom=0;" vertex="1" parent="1">
          <mxGeometry x="600" y="122" width="160" height="68" as="geometry" />
        </mxCell>
        <mxCell id="BxOXWXavswvXtlcd3Buv-11" value="- name: String&#xa;- size: int" style="text;strokeColor=none;fillColor=none;align=left;verticalAlign=top;spacingLeft=4;spacingRight=4;overflow=hidden;rotatable=0;points=[[0,0.5],[1,0.5]];portConstraint=eastwest;" vertex="1" parent="BxOXWXavswvXtlcd3Buv-10">
          <mxGeometry y="26" width="160" height="34" as="geometry" />
        </mxCell>
        <mxCell id="BxOXWXavswvXtlcd3Buv-12" value="" style="line;strokeWidth=1;fillColor=none;align=left;verticalAlign=middle;spacingTop=-1;spacingLeft=3;spacingRight=3;rotatable=0;labelPosition=right;points=[];portConstraint=eastwest;" vertex="1" parent="BxOXWXavswvXtlcd3Buv-10">
          <mxGeometry y="60" width="160" height="8" as="geometry" />
        </mxCell>
        <mxCell id="BxOXWXavswvXtlcd3Buv-15" value="" style="endArrow=none;dashed=1;html=1;rounded=0;" edge="1" parent="1">
          <mxGeometry width="50" height="50" relative="1" as="geometry">
            <mxPoint x="598" y="230" as="sourcePoint" />
            <mxPoint x="570" y="230" as="targetPoint" />
          </mxGeometry>
        </mxCell>
        <mxCell id="BxOXWXavswvXtlcd3Buv-16" value="PizzaIngredient" style="swimlane;fontStyle=1;align=center;verticalAlign=top;childLayout=stackLayout;horizontal=1;startSize=26;horizontalStack=0;resizeParent=1;resizeParentMax=0;resizeLast=0;collapsible=1;marginBottom=0;" vertex="1" parent="1">
          <mxGeometry x="600" y="210" width="160" height="34" as="geometry" />
        </mxCell>
        <mxCell id="BxOXWXavswvXtlcd3Buv-18" value="" style="line;strokeWidth=1;fillColor=none;align=left;verticalAlign=middle;spacingTop=-1;spacingLeft=3;spacingRight=3;rotatable=0;labelPosition=right;points=[];portConstraint=eastwest;" vertex="1" parent="BxOXWXavswvXtlcd3Buv-16">
          <mxGeometry y="26" width="160" height="8" as="geometry" />
        </mxCell>
        <mxCell id="BxOXWXavswvXtlcd3Buv-19" value="" style="endArrow=none;html=1;edgeStyle=orthogonalEdgeStyle;rounded=0;exitX=1;exitY=0.5;exitDx=0;exitDy=0;entryX=0;entryY=0.5;entryDx=0;entryDy=0;" edge="1" parent="1" source="BTs02judrrAGgDwHJmD5-2" target="BxOXWXavswvXtlcd3Buv-11">
          <mxGeometry relative="1" as="geometry">
            <mxPoint x="340" y="390" as="sourcePoint" />
            <mxPoint x="500" y="390" as="targetPoint" />
          </mxGeometry>
        </mxCell>
        <mxCell id="BxOXWXavswvXtlcd3Buv-20" value="1..*" style="edgeLabel;resizable=0;html=1;align=left;verticalAlign=bottom;" connectable="0" vertex="1" parent="BxOXWXavswvXtlcd3Buv-19">
          <mxGeometry x="-1" relative="1" as="geometry" />
        </mxCell>
        <mxCell id="BxOXWXavswvXtlcd3Buv-21" value="1..*" style="edgeLabel;resizable=0;html=1;align=right;verticalAlign=bottom;" connectable="0" vertex="1" parent="BxOXWXavswvXtlcd3Buv-19">
          <mxGeometry x="1" relative="1" as="geometry" />
        </mxCell>
        <mxCell id="BxOXWXavswvXtlcd3Buv-24" value="comes with" style="edgeLabel;html=1;align=center;verticalAlign=middle;resizable=0;points=[];" vertex="1" connectable="0" parent="BxOXWXavswvXtlcd3Buv-19">
          <mxGeometry x="0.2754" y="-1" relative="1" as="geometry">
            <mxPoint as="offset" />
          </mxGeometry>
        </mxCell>
        <mxCell id="BxOXWXavswvXtlcd3Buv-25" value="Crust" style="swimlane;fontStyle=1;align=center;verticalAlign=top;childLayout=stackLayout;horizontal=1;startSize=26;horizontalStack=0;resizeParent=1;resizeParentMax=0;resizeLast=0;collapsible=1;marginBottom=0;" vertex="1" parent="1">
          <mxGeometry x="440" y="322" width="160" height="68" as="geometry" />
        </mxCell>
        <mxCell id="BxOXWXavswvXtlcd3Buv-26" value="- style: String" style="text;strokeColor=none;fillColor=none;align=left;verticalAlign=top;spacingLeft=4;spacingRight=4;overflow=hidden;rotatable=0;points=[[0,0.5],[1,0.5]];portConstraint=eastwest;" vertex="1" parent="BxOXWXavswvXtlcd3Buv-25">
          <mxGeometry y="26" width="160" height="34" as="geometry" />
        </mxCell>
        <mxCell id="BxOXWXavswvXtlcd3Buv-27" value="" style="line;strokeWidth=1;fillColor=none;align=left;verticalAlign=middle;spacingTop=-1;spacingLeft=3;spacingRight=3;rotatable=0;labelPosition=right;points=[];portConstraint=eastwest;" vertex="1" parent="BxOXWXavswvXtlcd3Buv-25">
          <mxGeometry y="60" width="160" height="8" as="geometry" />
        </mxCell>
        <mxCell id="BxOXWXavswvXtlcd3Buv-28" value="" style="endArrow=none;html=1;edgeStyle=orthogonalEdgeStyle;rounded=0;exitX=0.25;exitY=1;exitDx=0;exitDy=0;entryX=0;entryY=0.5;entryDx=0;entryDy=0;" edge="1" parent="1" source="BTs02judrrAGgDwHJmD5-1" target="BxOXWXavswvXtlcd3Buv-26">
          <mxGeometry relative="1" as="geometry">
            <mxPoint x="340" y="420" as="sourcePoint" />
            <mxPoint x="500" y="420" as="targetPoint" />
          </mxGeometry>
        </mxCell>
        <mxCell id="BxOXWXavswvXtlcd3Buv-29" value="1..*" style="edgeLabel;resizable=0;html=1;align=left;verticalAlign=top;labelPosition=right;verticalLabelPosition=bottom;" connectable="0" vertex="1" parent="BxOXWXavswvXtlcd3Buv-28">
          <mxGeometry x="-1" relative="1" as="geometry" />
        </mxCell>
        <mxCell id="BxOXWXavswvXtlcd3Buv-30" value="1..1" style="edgeLabel;resizable=0;html=1;align=right;verticalAlign=bottom;" connectable="0" vertex="1" parent="BxOXWXavswvXtlcd3Buv-28">
          <mxGeometry x="1" relative="1" as="geometry" />
        </mxCell>
        <mxCell id="BxOXWXavswvXtlcd3Buv-33" value="" style="endArrow=none;dashed=1;html=1;rounded=0;" edge="1" parent="1">
          <mxGeometry width="50" height="50" relative="1" as="geometry">
            <mxPoint x="410" y="490" as="sourcePoint" />
            <mxPoint x="410" y="360" as="targetPoint" />
          </mxGeometry>
        </mxCell>
        <mxCell id="BxOXWXavswvXtlcd3Buv-34" value="PizzaCrust" style="swimlane;fontStyle=1;align=center;verticalAlign=top;childLayout=stackLayout;horizontal=1;startSize=26;horizontalStack=0;resizeParent=1;resizeParentMax=0;resizeLast=0;collapsible=1;marginBottom=0;" vertex="1" parent="1">
          <mxGeometry x="330" y="490" width="160" height="34" as="geometry" />
        </mxCell>
        <mxCell id="BxOXWXavswvXtlcd3Buv-36" value="" style="line;strokeWidth=1;fillColor=none;align=left;verticalAlign=middle;spacingTop=-1;spacingLeft=3;spacingRight=3;rotatable=0;labelPosition=right;points=[];portConstraint=eastwest;" vertex="1" parent="BxOXWXavswvXtlcd3Buv-34">
          <mxGeometry y="26" width="160" height="8" as="geometry" />
        </mxCell>
      </root>
    </mxGraphModel>
  </diagram>
  <diagram id="3O40RhoKF9wUyvyi6vO2" name="Page-2">
    <mxGraphModel dx="1673" dy="896" grid="1" gridSize="10" guides="1" tooltips="1" connect="1" arrows="1" fold="1" page="1" pageScale="1" pageWidth="850" pageHeight="1100" math="0" shadow="0">
      <root>
        <mxCell id="0" />
        <mxCell id="1" parent="0" />
        <mxCell id="0J60c-AsbKtQBAB1ED8U-1" value="Pizzas" style="text;html=1;strokeColor=none;fillColor=none;align=center;verticalAlign=middle;whiteSpace=wrap;rounded=0;" vertex="1" parent="1">
          <mxGeometry x="320" y="40" width="60" height="30" as="geometry" />
        </mxCell>
        <mxCell id="0J60c-AsbKtQBAB1ED8U-2" value="name" style="text;html=1;strokeColor=default;fillColor=none;align=center;verticalAlign=middle;whiteSpace=wrap;rounded=0;" vertex="1" parent="1">
          <mxGeometry x="320" y="70" width="60" height="30" as="geometry" />
        </mxCell>
        <mxCell id="0J60c-AsbKtQBAB1ED8U-3" value="Primary Key" style="text;html=1;strokeColor=#d79b00;fillColor=#ffe6cc;align=center;verticalAlign=middle;whiteSpace=wrap;rounded=0;" vertex="1" parent="1">
          <mxGeometry x="320" y="100" width="60" height="30" as="geometry" />
        </mxCell>
        <mxCell id="0J60c-AsbKtQBAB1ED8U-4" value="Crusts" style="text;html=1;strokeColor=none;fillColor=none;align=center;verticalAlign=middle;whiteSpace=wrap;rounded=0;" vertex="1" parent="1">
          <mxGeometry x="640" y="40" width="60" height="30" as="geometry" />
        </mxCell>
        <mxCell id="0J60c-AsbKtQBAB1ED8U-5" value="style" style="text;html=1;strokeColor=default;fillColor=none;align=center;verticalAlign=middle;whiteSpace=wrap;rounded=0;" vertex="1" parent="1">
          <mxGeometry x="640" y="70" width="60" height="30" as="geometry" />
        </mxCell>
        <mxCell id="0J60c-AsbKtQBAB1ED8U-6" value="Primary Key" style="text;html=1;strokeColor=#d79b00;fillColor=#ffe6cc;align=center;verticalAlign=middle;whiteSpace=wrap;rounded=0;" vertex="1" parent="1">
          <mxGeometry x="640" y="100" width="60" height="30" as="geometry" />
        </mxCell>
        <mxCell id="0J60c-AsbKtQBAB1ED8U-7" value="Ingredients" style="text;html=1;strokeColor=none;fillColor=none;align=center;verticalAlign=middle;whiteSpace=wrap;rounded=0;" vertex="1" parent="1">
          <mxGeometry x="480" y="40" width="70" height="30" as="geometry" />
        </mxCell>
        <mxCell id="0J60c-AsbKtQBAB1ED8U-8" value="name" style="text;html=1;strokeColor=default;fillColor=none;align=center;verticalAlign=middle;whiteSpace=wrap;rounded=0;" vertex="1" parent="1">
          <mxGeometry x="480" y="70" width="70" height="30" as="geometry" />
        </mxCell>
        <mxCell id="0J60c-AsbKtQBAB1ED8U-9" value="Primary Key" style="text;html=1;strokeColor=#d79b00;fillColor=#ffe6cc;align=center;verticalAlign=middle;whiteSpace=wrap;rounded=0;" vertex="1" parent="1">
          <mxGeometry x="480" y="100" width="70" height="30" as="geometry" />
        </mxCell>
        <mxCell id="0J60c-AsbKtQBAB1ED8U-10" value="Sizes" style="text;html=1;strokeColor=none;fillColor=none;align=center;verticalAlign=middle;whiteSpace=wrap;rounded=0;" vertex="1" parent="1">
          <mxGeometry x="80" y="40" width="60" height="30" as="geometry" />
        </mxCell>
        <mxCell id="0J60c-AsbKtQBAB1ED8U-11" value="name" style="text;html=1;strokeColor=default;fillColor=none;align=center;verticalAlign=middle;whiteSpace=wrap;rounded=0;" vertex="1" parent="1">
          <mxGeometry x="80" y="70" width="60" height="30" as="geometry" />
        </mxCell>
        <mxCell id="0J60c-AsbKtQBAB1ED8U-12" value="Primary Key" style="text;html=1;strokeColor=#d79b00;fillColor=#ffe6cc;align=center;verticalAlign=middle;whiteSpace=wrap;rounded=0;" vertex="1" parent="1">
          <mxGeometry x="80" y="100" width="60" height="30" as="geometry" />
        </mxCell>
        <mxCell id="0J60c-AsbKtQBAB1ED8U-13" value="diameter" style="text;html=1;strokeColor=default;fillColor=none;align=center;verticalAlign=middle;whiteSpace=wrap;rounded=0;" vertex="1" parent="1">
          <mxGeometry x="140" y="70" width="110" height="30" as="geometry" />
        </mxCell>
        <mxCell id="0J60c-AsbKtQBAB1ED8U-14" value="PizzaSizes" style="text;html=1;strokeColor=none;fillColor=none;align=center;verticalAlign=middle;whiteSpace=wrap;rounded=0;" vertex="1" parent="1">
          <mxGeometry x="20" y="320" width="70" height="30" as="geometry" />
        </mxCell>
        <mxCell id="0J60c-AsbKtQBAB1ED8U-15" value="size_name" style="text;html=1;strokeColor=default;fillColor=none;align=center;verticalAlign=middle;whiteSpace=wrap;rounded=0;" vertex="1" parent="1">
          <mxGeometry x="100" y="310" width="70" height="30" as="geometry" />
        </mxCell>
        <mxCell id="0J60c-AsbKtQBAB1ED8U-16" value="Primary Key" style="text;html=1;strokeColor=#d79b00;fillColor=#ffe6cc;align=center;verticalAlign=middle;whiteSpace=wrap;rounded=0;" vertex="1" parent="1">
          <mxGeometry x="100" y="340" width="140" height="30" as="geometry" />
        </mxCell>
        <mxCell id="0J60c-AsbKtQBAB1ED8U-17" value="PizzaIngredients" style="text;html=1;strokeColor=none;fillColor=none;align=center;verticalAlign=middle;whiteSpace=wrap;rounded=0;" vertex="1" parent="1">
          <mxGeometry x="375" y="320" width="95" height="30" as="geometry" />
        </mxCell>
        <mxCell id="0J60c-AsbKtQBAB1ED8U-18" value="pizza_name" style="text;html=1;strokeColor=default;fillColor=none;align=center;verticalAlign=middle;whiteSpace=wrap;rounded=0;" vertex="1" parent="1">
          <mxGeometry x="470" y="310" width="70" height="30" as="geometry" />
        </mxCell>
        <mxCell id="0J60c-AsbKtQBAB1ED8U-19" value="Primary Key" style="text;html=1;strokeColor=#d79b00;fillColor=#ffe6cc;align=center;verticalAlign=middle;whiteSpace=wrap;rounded=0;" vertex="1" parent="1">
          <mxGeometry x="470" y="340" width="170" height="30" as="geometry" />
        </mxCell>
        <mxCell id="0J60c-AsbKtQBAB1ED8U-20" value="pizza_name" style="text;html=1;strokeColor=default;fillColor=none;align=center;verticalAlign=middle;whiteSpace=wrap;rounded=0;" vertex="1" parent="1">
          <mxGeometry x="170" y="310" width="70" height="30" as="geometry" />
        </mxCell>
        <mxCell id="0J60c-AsbKtQBAB1ED8U-21" value="ingredient_name" style="text;html=1;strokeColor=default;fillColor=none;align=center;verticalAlign=middle;whiteSpace=wrap;rounded=0;" vertex="1" parent="1">
          <mxGeometry x="540" y="310" width="100" height="30" as="geometry" />
        </mxCell>
        <mxCell id="0J60c-AsbKtQBAB1ED8U-22" value="Foreign Key" style="text;html=1;strokeColor=#6c8ebf;fillColor=#dae8fc;align=center;verticalAlign=middle;whiteSpace=wrap;rounded=0;" vertex="1" parent="1">
          <mxGeometry x="100" y="280" width="70" height="30" as="geometry" />
        </mxCell>
        <mxCell id="0J60c-AsbKtQBAB1ED8U-23" value="Foreign Key" style="text;html=1;strokeColor=#6c8ebf;fillColor=#dae8fc;align=center;verticalAlign=middle;whiteSpace=wrap;rounded=0;" vertex="1" parent="1">
          <mxGeometry x="170" y="250" width="70" height="30" as="geometry" />
        </mxCell>
        <mxCell id="0J60c-AsbKtQBAB1ED8U-24" value="Foreign Key" style="text;html=1;strokeColor=#6c8ebf;fillColor=#dae8fc;align=center;verticalAlign=middle;whiteSpace=wrap;rounded=0;" vertex="1" parent="1">
          <mxGeometry x="470" y="280" width="70" height="30" as="geometry" />
        </mxCell>
        <mxCell id="0J60c-AsbKtQBAB1ED8U-25" value="Foreign Key" style="text;html=1;strokeColor=#6c8ebf;fillColor=#dae8fc;align=center;verticalAlign=middle;whiteSpace=wrap;rounded=0;" vertex="1" parent="1">
          <mxGeometry x="540" y="250" width="100" height="30" as="geometry" />
        </mxCell>
        <mxCell id="0J60c-AsbKtQBAB1ED8U-26" value="" style="endArrow=none;html=1;edgeStyle=orthogonalEdgeStyle;rounded=0;exitX=0.5;exitY=1;exitDx=0;exitDy=0;entryX=0.5;entryY=0;entryDx=0;entryDy=0;" edge="1" parent="1" source="0J60c-AsbKtQBAB1ED8U-12" target="0J60c-AsbKtQBAB1ED8U-22">
          <mxGeometry relative="1" as="geometry">
            <mxPoint x="120" y="190" as="sourcePoint" />
            <mxPoint x="250" y="190" as="targetPoint" />
          </mxGeometry>
        </mxCell>
        <mxCell id="0J60c-AsbKtQBAB1ED8U-27" value="1..*" style="edgeLabel;resizable=0;html=1;align=left;verticalAlign=bottom;" connectable="0" vertex="1" parent="0J60c-AsbKtQBAB1ED8U-26">
          <mxGeometry x="-1" relative="1" as="geometry">
            <mxPoint y="20" as="offset" />
          </mxGeometry>
        </mxCell>
        <mxCell id="0J60c-AsbKtQBAB1ED8U-28" value="1..*" style="edgeLabel;resizable=0;html=1;align=right;verticalAlign=bottom;" connectable="0" vertex="1" parent="0J60c-AsbKtQBAB1ED8U-26">
          <mxGeometry x="1" relative="1" as="geometry">
            <mxPoint as="offset" />
          </mxGeometry>
        </mxCell>
        <mxCell id="0J60c-AsbKtQBAB1ED8U-29" value="comes in a" style="edgeLabel;html=1;align=center;verticalAlign=middle;resizable=0;points=[];" connectable="0" vertex="1" parent="0J60c-AsbKtQBAB1ED8U-26">
          <mxGeometry x="-0.1467" y="3" relative="1" as="geometry">
            <mxPoint x="15" y="4" as="offset" />
          </mxGeometry>
        </mxCell>
        <mxCell id="0J60c-AsbKtQBAB1ED8U-30" value="" style="endArrow=none;html=1;edgeStyle=orthogonalEdgeStyle;rounded=0;entryX=0.5;entryY=0;entryDx=0;entryDy=0;exitX=0.5;exitY=1;exitDx=0;exitDy=0;" edge="1" parent="1" source="0J60c-AsbKtQBAB1ED8U-9" target="0J60c-AsbKtQBAB1ED8U-25">
          <mxGeometry relative="1" as="geometry">
            <mxPoint x="440" y="220" as="sourcePoint" />
            <mxPoint x="560" y="250" as="targetPoint" />
          </mxGeometry>
        </mxCell>
        <mxCell id="0J60c-AsbKtQBAB1ED8U-31" value="1..*" style="edgeLabel;resizable=0;html=1;align=left;verticalAlign=bottom;" connectable="0" vertex="1" parent="0J60c-AsbKtQBAB1ED8U-30">
          <mxGeometry x="-1" relative="1" as="geometry">
            <mxPoint y="20" as="offset" />
          </mxGeometry>
        </mxCell>
        <mxCell id="0J60c-AsbKtQBAB1ED8U-32" value="1..*" style="edgeLabel;resizable=0;html=1;align=right;verticalAlign=bottom;" connectable="0" vertex="1" parent="0J60c-AsbKtQBAB1ED8U-30">
          <mxGeometry x="1" relative="1" as="geometry">
            <mxPoint as="offset" />
          </mxGeometry>
        </mxCell>
        <mxCell id="0J60c-AsbKtQBAB1ED8U-33" value="comes with" style="edgeLabel;html=1;align=center;verticalAlign=middle;resizable=0;points=[];" connectable="0" vertex="1" parent="0J60c-AsbKtQBAB1ED8U-30">
          <mxGeometry x="-0.2439" relative="1" as="geometry">
            <mxPoint x="15" y="2" as="offset" />
          </mxGeometry>
        </mxCell>
        <mxCell id="0J60c-AsbKtQBAB1ED8U-34" value="" style="endArrow=none;html=1;edgeStyle=orthogonalEdgeStyle;rounded=0;exitX=0.25;exitY=1;exitDx=0;exitDy=0;entryX=0.5;entryY=0;entryDx=0;entryDy=0;" edge="1" parent="1" source="0J60c-AsbKtQBAB1ED8U-3" target="0J60c-AsbKtQBAB1ED8U-23">
          <mxGeometry relative="1" as="geometry">
            <mxPoint x="330" y="190" as="sourcePoint" />
            <mxPoint x="415" y="340" as="targetPoint" />
          </mxGeometry>
        </mxCell>
        <mxCell id="0J60c-AsbKtQBAB1ED8U-35" value="1..*" style="edgeLabel;resizable=0;html=1;align=left;verticalAlign=bottom;" connectable="0" vertex="1" parent="0J60c-AsbKtQBAB1ED8U-34">
          <mxGeometry x="-1" relative="1" as="geometry">
            <mxPoint x="-25" y="20" as="offset" />
          </mxGeometry>
        </mxCell>
        <mxCell id="0J60c-AsbKtQBAB1ED8U-36" value="1..*" style="edgeLabel;resizable=0;html=1;align=right;verticalAlign=bottom;" connectable="0" vertex="1" parent="0J60c-AsbKtQBAB1ED8U-34">
          <mxGeometry x="1" relative="1" as="geometry">
            <mxPoint as="offset" />
          </mxGeometry>
        </mxCell>
        <mxCell id="0J60c-AsbKtQBAB1ED8U-37" value="comes in" style="edgeLabel;html=1;align=center;verticalAlign=middle;resizable=0;points=[];" connectable="0" vertex="1" parent="0J60c-AsbKtQBAB1ED8U-34">
          <mxGeometry x="-0.1467" y="3" relative="1" as="geometry">
            <mxPoint x="-4" y="-5" as="offset" />
          </mxGeometry>
        </mxCell>
        <mxCell id="0J60c-AsbKtQBAB1ED8U-38" value="" style="endArrow=none;html=1;edgeStyle=orthogonalEdgeStyle;rounded=0;entryX=0.5;entryY=0;entryDx=0;entryDy=0;exitX=0.75;exitY=1;exitDx=0;exitDy=0;" edge="1" parent="1" source="0J60c-AsbKtQBAB1ED8U-3" target="0J60c-AsbKtQBAB1ED8U-24">
          <mxGeometry relative="1" as="geometry">
            <mxPoint x="420" y="160" as="sourcePoint" />
            <mxPoint x="455" y="330" as="targetPoint" />
          </mxGeometry>
        </mxCell>
        <mxCell id="0J60c-AsbKtQBAB1ED8U-39" value="1..*" style="edgeLabel;resizable=0;html=1;align=left;verticalAlign=bottom;" connectable="0" vertex="1" parent="0J60c-AsbKtQBAB1ED8U-38">
          <mxGeometry x="-1" relative="1" as="geometry">
            <mxPoint y="20" as="offset" />
          </mxGeometry>
        </mxCell>
        <mxCell id="0J60c-AsbKtQBAB1ED8U-40" value="1..*" style="edgeLabel;resizable=0;html=1;align=right;verticalAlign=bottom;" connectable="0" vertex="1" parent="0J60c-AsbKtQBAB1ED8U-38">
          <mxGeometry x="1" relative="1" as="geometry">
            <mxPoint as="offset" />
          </mxGeometry>
        </mxCell>
        <mxCell id="0J60c-AsbKtQBAB1ED8U-41" value="comes with" style="edgeLabel;html=1;align=center;verticalAlign=middle;resizable=0;points=[];" connectable="0" vertex="1" parent="0J60c-AsbKtQBAB1ED8U-38">
          <mxGeometry x="-0.2439" relative="1" as="geometry">
            <mxPoint x="32" y="2" as="offset" />
          </mxGeometry>
        </mxCell>
        <mxCell id="0J60c-AsbKtQBAB1ED8U-42" value="PizzaCrusts" style="text;html=1;strokeColor=none;fillColor=none;align=center;verticalAlign=middle;whiteSpace=wrap;rounded=0;" vertex="1" parent="1">
          <mxGeometry x="480" y="500" width="90" height="30" as="geometry" />
        </mxCell>
        <mxCell id="0J60c-AsbKtQBAB1ED8U-43" value="pizza_name" style="text;html=1;strokeColor=default;fillColor=none;align=center;verticalAlign=middle;whiteSpace=wrap;rounded=0;" vertex="1" parent="1">
          <mxGeometry x="580" y="490" width="70" height="30" as="geometry" />
        </mxCell>
        <mxCell id="0J60c-AsbKtQBAB1ED8U-44" value="Primary Key" style="text;html=1;strokeColor=#d79b00;fillColor=#ffe6cc;align=center;verticalAlign=middle;whiteSpace=wrap;rounded=0;" vertex="1" parent="1">
          <mxGeometry x="580" y="520" width="140" height="30" as="geometry" />
        </mxCell>
        <mxCell id="0J60c-AsbKtQBAB1ED8U-45" value="style" style="text;html=1;strokeColor=default;fillColor=none;align=center;verticalAlign=middle;whiteSpace=wrap;rounded=0;" vertex="1" parent="1">
          <mxGeometry x="650" y="490" width="70" height="30" as="geometry" />
        </mxCell>
        <mxCell id="0J60c-AsbKtQBAB1ED8U-46" value="Foreign Key" style="text;html=1;strokeColor=#6c8ebf;fillColor=#dae8fc;align=center;verticalAlign=middle;whiteSpace=wrap;rounded=0;" vertex="1" parent="1">
          <mxGeometry x="580" y="460" width="70" height="30" as="geometry" />
        </mxCell>
        <mxCell id="0J60c-AsbKtQBAB1ED8U-47" value="Foreign Key" style="text;html=1;strokeColor=#6c8ebf;fillColor=#dae8fc;align=center;verticalAlign=middle;whiteSpace=wrap;rounded=0;" vertex="1" parent="1">
          <mxGeometry x="650" y="430" width="70" height="30" as="geometry" />
        </mxCell>
        <mxCell id="0J60c-AsbKtQBAB1ED8U-48" value="" style="endArrow=none;html=1;edgeStyle=orthogonalEdgeStyle;rounded=0;entryX=0.5;entryY=0;entryDx=0;entryDy=0;" edge="1" parent="1" target="0J60c-AsbKtQBAB1ED8U-46">
          <mxGeometry relative="1" as="geometry">
            <mxPoint x="350" y="130" as="sourcePoint" />
            <mxPoint x="649.04" y="239.99199999999996" as="targetPoint" />
            <Array as="points">
              <mxPoint x="350" y="440" />
              <mxPoint x="605" y="440" />
            </Array>
          </mxGeometry>
        </mxCell>
        <mxCell id="0J60c-AsbKtQBAB1ED8U-49" value="1..*" style="edgeLabel;resizable=0;html=1;align=left;verticalAlign=bottom;" connectable="0" vertex="1" parent="0J60c-AsbKtQBAB1ED8U-48">
          <mxGeometry x="-1" relative="1" as="geometry">
            <mxPoint x="-20" y="110" as="offset" />
          </mxGeometry>
        </mxCell>
        <mxCell id="0J60c-AsbKtQBAB1ED8U-50" value="1..1" style="edgeLabel;resizable=0;html=1;align=right;verticalAlign=bottom;" connectable="0" vertex="1" parent="0J60c-AsbKtQBAB1ED8U-48">
          <mxGeometry x="1" relative="1" as="geometry" />
        </mxCell>
        <mxCell id="0J60c-AsbKtQBAB1ED8U-51" value="is available in" style="edgeLabel;html=1;align=center;verticalAlign=middle;resizable=0;points=[];" connectable="0" vertex="1" parent="0J60c-AsbKtQBAB1ED8U-48">
          <mxGeometry x="-0.2459" y="-1" relative="1" as="geometry">
            <mxPoint y="66" as="offset" />
          </mxGeometry>
        </mxCell>
        <mxCell id="0J60c-AsbKtQBAB1ED8U-52" value="" style="endArrow=none;html=1;edgeStyle=orthogonalEdgeStyle;rounded=0;entryX=0.5;entryY=0;entryDx=0;entryDy=0;exitX=0.5;exitY=1;exitDx=0;exitDy=0;" edge="1" parent="1" source="0J60c-AsbKtQBAB1ED8U-6" target="0J60c-AsbKtQBAB1ED8U-47">
          <mxGeometry relative="1" as="geometry">
            <mxPoint x="780" y="140" as="sourcePoint" />
            <mxPoint x="1035" y="480" as="targetPoint" />
            <Array as="points">
              <mxPoint x="670" y="380" />
              <mxPoint x="685" y="380" />
            </Array>
          </mxGeometry>
        </mxCell>
        <mxCell id="0J60c-AsbKtQBAB1ED8U-53" value="1..*" style="edgeLabel;resizable=0;html=1;align=left;verticalAlign=bottom;" connectable="0" vertex="1" parent="0J60c-AsbKtQBAB1ED8U-52">
          <mxGeometry x="-1" relative="1" as="geometry">
            <mxPoint x="-20" y="20" as="offset" />
          </mxGeometry>
        </mxCell>
        <mxCell id="0J60c-AsbKtQBAB1ED8U-54" value="1..1" style="edgeLabel;resizable=0;html=1;align=right;verticalAlign=bottom;" connectable="0" vertex="1" parent="0J60c-AsbKtQBAB1ED8U-52">
          <mxGeometry x="1" relative="1" as="geometry">
            <mxPoint x="25" as="offset" />
          </mxGeometry>
        </mxCell>
        <mxCell id="0J60c-AsbKtQBAB1ED8U-55" value="is available in" style="edgeLabel;html=1;align=center;verticalAlign=middle;resizable=0;points=[];" connectable="0" vertex="1" parent="0J60c-AsbKtQBAB1ED8U-52">
          <mxGeometry x="-0.2459" y="-1" relative="1" as="geometry">
            <mxPoint y="66" as="offset" />
          </mxGeometry>
        </mxCell>
        <mxCell id="0J60c-AsbKtQBAB1ED8U-56" value="cost" style="text;html=1;strokeColor=default;fillColor=none;align=center;verticalAlign=middle;whiteSpace=wrap;rounded=0;" vertex="1" parent="1">
          <mxGeometry x="240" y="310" width="70" height="30" as="geometry" />
        </mxCell>
      </root>
    </mxGraphModel>
  </diagram>
</mxfile>
